<svg width="19" height="18" viewBox="0 0 19 18" fill="none" xmlns="http://www.w3.org/2000/svg">
    <path d="M2.58301 1.5C2.99722 1.5 3.33301 1.83579 3.33301 2.25L3.33301 15.75C3.33301 16.1642 2.99722 16.5 2.58301 16.5C2.16879 16.5 1.83301 16.1642 1.83301 15.75V2.25C1.83301 1.83579 2.16879 1.5 2.58301 1.5Z" fill="black"/>
    <path d="M7.39367 8.25L11.3633 4.28033C11.6562 3.98744 11.6562 3.51256 11.3633 3.21967C11.0704 2.92678 10.5956 2.92678 10.3027 3.21967L5.05268 8.46967C4.75978 8.76256 4.75978 9.23744 5.05268 9.53033L10.3027 14.7803C10.5956 15.0732 11.0704 15.0732 11.3633 14.7803C11.6562 14.4874 11.6562 14.0126 11.3633 13.7197L7.39367 9.75L16.083 9.75C16.4972 9.75 16.833 9.41421 16.833 9C16.833 8.58579 16.4972 8.25 16.083 8.25L7.39367 8.25Z" fill="black"/>
</svg>