<svg width="19" height="18" viewBox="0 0 19 18" fill="none" xmlns="http://www.w3.org/2000/svg">
    <path d="M9.66797 1.5C10.0822 1.5 10.418 1.83579 10.418 2.25V10.9393L14.3876 6.96967C14.6805 6.67678 15.1554 6.67678 15.4483 6.96967C15.7412 7.26256 15.7412 7.73744 15.4483 8.03033L10.1983 13.2803C9.90541 13.5732 9.43053 13.5732 9.13764 13.2803L3.88764 8.03033C3.59475 7.73744 3.59475 7.26256 3.88764 6.96967C4.18053 6.67678 4.65541 6.67678 4.9483 6.96967L8.91797 10.9393L8.91797 2.25C8.91797 1.83579 9.25376 1.5 9.66797 1.5Z" fill="black"/>
    <path d="M2.16797 15.75C2.16797 15.3358 2.50376 15 2.91797 15L16.418 15C16.8322 15 17.168 15.3358 17.168 15.75C17.168 16.1642 16.8322 16.5 16.418 16.5L2.91797 16.5C2.50376 16.5 2.16797 16.1642 2.16797 15.75Z" fill="black"/>
</svg>