<svg width="20" height="20" viewBox="0 0 20 20" fill="none" xmlns="http://www.w3.org/2000/svg">
  <path d="M2.5 6.5C2.5 5.09987 2.5 4.3998 2.77248 3.86502C3.01217 3.39462 3.39462 3.01217 3.86502 2.77248C4.3998 2.5 5.09987 2.5 6.5 2.5H13.5C14.9001 2.5 15.6002 2.5 16.135 2.77248C16.6054 3.01217 16.9878 3.39462 17.2275 3.86502C17.5 4.3998 17.5 5.09987 17.5 6.5V11.25C17.5 12.4149 17.5 12.9973 17.3097 13.4567C17.056 14.0693 16.5693 14.556 15.9567 14.8097C15.4973 15 14.9149 15 13.75 15C13.3429 15 13.1393 15 12.9504 15.0446C12.6986 15.104 12.4641 15.2213 12.2654 15.3871C12.1164 15.5114 11.9943 15.6743 11.75 16L10.5333 17.6222C10.3524 17.8635 10.2619 17.9841 10.151 18.0272C10.0539 18.065 9.94611 18.065 9.84897 18.0272C9.73807 17.9841 9.6476 17.8635 9.46667 17.6222L8.25 16C8.00571 15.6743 7.88357 15.5114 7.73458 15.3871C7.53593 15.2213 7.30141 15.104 7.04959 15.0446C6.86072 15 6.65715 15 6.25 15C5.08515 15 4.50272 15 4.04329 14.8097C3.43072 14.556 2.94404 14.0693 2.6903 13.4567C2.5 12.9973 2.5 12.4149 2.5 11.25V6.5Z" stroke="black" stroke-width="1.5" stroke-linecap="round" stroke-linejoin="round"/>
</svg>