<svg width="19" height="18" viewBox="0 0 19 18" fill="none" xmlns="http://www.w3.org/2000/svg">
    <path d="M2.91602 9H16.416M9.66601 2.25V15.75M6.51602 2.25H12.816C14.0761 2.25 14.7062 2.25 15.1875 2.49524C15.6109 2.71095 15.9551 3.05516 16.1708 3.47852C16.416 3.95982 16.416 4.58988 16.416 5.85V12.15C16.416 13.4101 16.416 14.0402 16.1708 14.5215C15.9551 14.9448 15.6109 15.289 15.1875 15.5048C14.7062 15.75 14.0761 15.75 12.816 15.75H6.51602C5.2559 15.75 4.62584 15.75 4.14454 15.5048C3.72117 15.289 3.37697 14.9448 3.16125 14.5215C2.91602 14.0402 2.91602 13.4101 2.91602 12.15V5.85C2.91602 4.58988 2.91602 3.95982 3.16125 3.47852C3.37697 3.05516 3.72117 2.71095 4.14454 2.49524C4.62584 2.25 5.2559 2.25 6.51602 2.25Z" stroke="black" stroke-width="1.5" stroke-linecap="round" stroke-linejoin="round"/>
</svg>