<svg width="20" height="20" viewBox="0 0 20 20" fill="none" xmlns="http://www.w3.org/2000/svg">
    <g clip-path="url(#clip0_3003_102749)">
        <path d="M4.99935 12.5013L6.66602 14.168L10.416 10.418M6.66602 6.66797V4.33464C6.66602 3.40121 6.66602 2.9345 6.84767 2.57798C7.00746 2.26438 7.26243 2.00941 7.57603 1.84962C7.93255 1.66797 8.39926 1.66797 9.33268 1.66797H15.666C16.5994 1.66797 17.0661 1.66797 17.4227 1.84962C17.7363 2.00941 17.9912 2.26438 18.151 2.57798C18.3327 2.9345 18.3327 3.40121 18.3327 4.33464V10.668C18.3327 11.6014 18.3327 12.0681 18.151 12.4246C17.9912 12.7382 17.7363 12.9932 17.4227 13.153C17.0661 13.3346 16.5994 13.3346 15.666 13.3346H13.3327M4.33268 18.3346H10.666C11.5994 18.3346 12.0661 18.3346 12.4227 18.153C12.7363 17.9932 12.9912 17.7382 13.151 17.4246C13.3327 17.0681 13.3327 16.6014 13.3327 15.668V9.33464C13.3327 8.40121 13.3327 7.9345 13.151 7.57798C12.9912 7.26438 12.7363 7.00941 12.4227 6.84962C12.0661 6.66797 11.5994 6.66797 10.666 6.66797H4.33268C3.39926 6.66797 2.93255 6.66797 2.57603 6.84962C2.26243 7.00941 2.00746 7.26438 1.84767 7.57798C1.66602 7.9345 1.66602 8.40121 1.66602 9.33464V15.668C1.66602 16.6014 1.66602 17.0681 1.84767 17.4246C2.00746 17.7382 2.26243 17.9932 2.57603 18.153C2.93255 18.3346 3.39926 18.3346 4.33268 18.3346Z" stroke="black" stroke-width="1.5" stroke-linecap="round" stroke-linejoin="round"/>
    </g>
    <defs>
        <clipPath id="clip0_3003_102749">
            <rect width="20" height="20" fill="white"/>
        </clipPath>
    </defs>
</svg>