<svg width="18" height="18" viewBox="0 0 18 18" fill="none" xmlns="http://www.w3.org/2000/svg">
    <path d="M10.0871 9.92234C9.73902 10.0057 9.37514 10.0499 9 10.0499C7.71029 10.0499 6.54245 9.52475 5.69965 8.67579C4.8654 7.83529 4.35 6.67787 4.35 5.40005C4.35 2.83189 6.43188 0.75 9 0.75C11.5681 0.75 13.65 2.83189 13.65 5.40005C13.65 6.33427 13.3745 7.20413 12.9003 7.93284C12.2748 8.89413 11.3036 9.6098 10.1629 9.90351C10.1377 9.90999 10.1124 9.91627 10.0871 9.92234Z" fill="black"/>
    <path d="M11.3607 11.0807C12.4985 10.6073 13.4634 9.80215 14.1349 8.78595C14.2503 8.61127 14.308 8.52393 14.3821 8.47998C14.4461 8.44204 14.5244 8.42341 14.5986 8.42843C14.6846 8.43424 14.7579 8.47616 14.9046 8.56C16.306 9.36126 17.25 10.871 17.25 12.5999C17.25 15.1681 15.1681 17.25 12.6 17.25C11.9343 17.25 11.3017 17.1104 10.7295 16.8587C10.5412 16.7758 10.447 16.7344 10.3877 16.6537C10.3367 16.5844 10.3101 16.4941 10.3155 16.4083C10.3217 16.3083 10.3924 16.2014 10.5337 15.9876C11.128 15.0888 11.4926 14.0248 11.5438 12.8793C11.5476 12.7925 11.5497 12.7052 11.55 12.6175L11.55 12.5999C11.55 12.1416 11.4997 11.6944 11.4043 11.2639C11.3907 11.2025 11.3762 11.1414 11.3607 11.0807Z" fill="black"/>
    <path d="M3.09542 8.56C3.24205 8.47616 3.31537 8.43424 3.40137 8.42843C3.4756 8.42341 3.55386 8.44204 3.61786 8.47998C3.69202 8.52393 3.74973 8.61128 3.86516 8.78598C4.96555 10.4514 6.85447 11.5501 9 11.5501C9.31094 11.5501 9.61649 11.527 9.91504 11.4825L9.91975 11.5017C10.0048 11.8534 10.05 12.221 10.05 12.5999L10.05 12.6161C10.0498 12.6792 10.0483 12.7421 10.0456 12.8046C9.93846 15.2778 7.89953 17.25 5.4 17.25C2.83188 17.25 0.75 15.1681 0.75 12.5999C0.75 10.871 1.69402 9.36126 3.09542 8.56Z" fill="black"/>
</svg>