<svg width="16" height="17" viewBox="0 0 16 17" fill="none" xmlns="http://www.w3.org/2000/svg">
    <path fill-rule="evenodd" clip-rule="evenodd" d="M0.666992 3.83203C0.666992 2.72746 1.56242 1.83203 2.66699 1.83203H13.3337C14.4382 1.83203 15.3337 2.72746 15.3337 3.83203C15.3337 4.9366 14.4382 5.83203 13.3337 5.83203H2.66699C1.56242 5.83203 0.666992 4.9366 0.666992 3.83203Z" fill="#B3B3B3"/>
    <path fill-rule="evenodd" clip-rule="evenodd" d="M2.66699 7.16536C2.2988 7.16536 2.00033 7.46384 2.00033 7.83203V11.3262C2.00032 11.8629 2.00031 12.3058 2.02979 12.6666C2.06041 13.0413 2.12611 13.3858 2.29098 13.7093C2.54664 14.2111 2.95459 14.6191 3.45635 14.8747C3.77991 15.0396 4.12438 15.1053 4.49911 15.1359C4.8599 15.1654 5.3028 15.1654 5.83944 15.1654H10.1612C10.6978 15.1654 11.1407 15.1654 11.5015 15.1359C11.8763 15.1053 12.2207 15.0396 12.5443 14.8747C13.0461 14.6191 13.454 14.2111 13.7097 13.7093C13.8745 13.3858 13.9402 13.0413 13.9709 12.6666C14.0003 12.3058 14.0003 11.8629 14.0003 11.3262V7.83203C14.0003 7.46384 13.7018 7.16536 13.3337 7.16536H2.66699ZM6.66699 9.16536C6.2988 9.16536 6.00033 9.46384 6.00033 9.83203C6.00033 10.2002 6.2988 10.4987 6.66699 10.4987H9.33366C9.70185 10.4987 10.0003 10.2002 10.0003 9.83203C10.0003 9.46384 9.70185 9.16536 9.33366 9.16536H6.66699Z" fill="#B3B3B3"/>
</svg>