<svg width="18" height="19" viewBox="0 0 18 19" fill="none" xmlns="http://www.w3.org/2000/svg">
    <path fill-rule="evenodd" clip-rule="evenodd" d="M7.125 4.25C7.125 5.07841 6.45341 5.75 5.625 5.75C4.79659 5.75 4.125 5.07841 4.125 4.25C4.125 3.42157 4.79659 2.75 5.625 2.75C6.45341 2.75 7.125 3.42157 7.125 4.25ZM5.625 11C6.45341 11 7.125 10.3284 7.125 9.5C7.125 8.67159 6.45341 8 5.625 8C4.79659 8 4.125 8.67159 4.125 9.5C4.125 10.3284 4.79659 11 5.625 11ZM5.625 16.25C6.45341 16.25 7.125 15.5784 7.125 14.75C7.125 13.9216 6.45341 13.25 5.625 13.25C4.79659 13.25 4.125 13.9216 4.125 14.75C4.125 15.5784 4.79659 16.25 5.625 16.25Z" fill="#8D8D8D"/>
    <path fill-rule="evenodd" clip-rule="evenodd" d="M13.875 4.25C13.875 5.07841 13.2034 5.75 12.375 5.75C11.5466 5.75 10.875 5.07841 10.875 4.25C10.875 3.42157 11.5466 2.75 12.375 2.75C13.2034 2.75 13.875 3.42157 13.875 4.25ZM12.375 11C13.2034 11 13.875 10.3284 13.875 9.5C13.875 8.67159 13.2034 8 12.375 8C11.5466 8 10.875 8.67159 10.875 9.5C10.875 10.3284 11.5466 11 12.375 11ZM12.375 16.25C13.2034 16.25 13.875 15.5784 13.875 14.75C13.875 13.9216 13.2034 13.25 12.375 13.25C11.5466 13.25 10.875 13.9216 10.875 14.75C10.875 15.5784 11.5466 16.25 12.375 16.25Z" fill="#8D8D8D"/>
</svg>