<svg width="14" height="15" viewBox="0 0 14 15" fill="none" xmlns="http://www.w3.org/2000/svg">
    <path d="M5.83291 7.4987C5.83291 6.85437 6.35525 6.33203 6.99958 6.33203C7.64391 6.33203 8.16625 6.85437 8.16625 7.4987C8.16625 8.14303 7.64391 8.66537 6.99958 8.66537C6.35525 8.66537 5.83291 8.14303 5.83291 7.4987Z" fill="#B3B3B3"/>
    <path fill-rule="evenodd" clip-rule="evenodd" d="M6.99958 2.83203C5.33028 2.83203 3.96937 3.56978 2.96102 4.41137C1.95404 5.2518 1.26365 6.2237 0.917878 6.77119L0.903828 6.79335C0.835217 6.90135 0.746133 7.04157 0.701099 7.23805C0.664738 7.39669 0.664738 7.60071 0.701099 7.75935C0.746133 7.95582 0.835216 8.09605 0.903828 8.20404L0.917878 8.2262C1.26365 8.7737 1.95404 9.74559 2.96102 10.586C3.96937 11.4276 5.33028 12.1654 6.99958 12.1654C8.66889 12.1654 10.0298 11.4276 11.0382 10.586C12.0451 9.74559 12.7355 8.7737 13.0813 8.2262L13.0953 8.20405C13.164 8.09605 13.253 7.95583 13.2981 7.75935C13.3344 7.60071 13.3344 7.39669 13.2981 7.23805C13.253 7.04157 13.164 6.90134 13.0953 6.79334L13.0813 6.77119C12.7355 6.2237 12.0451 5.2518 11.0381 4.41137C10.0298 3.56978 8.66889 2.83203 6.99958 2.83203ZM6.99958 5.16536C5.71092 5.16536 4.66625 6.21003 4.66625 7.4987C4.66625 8.78736 5.71092 9.83203 6.99958 9.83203C8.28825 9.83203 9.33291 8.78736 9.33291 7.4987C9.33291 6.21003 8.28825 5.16536 6.99958 5.16536Z" fill="#B3B3B3"/>
</svg>