<svg width="18" height="18" viewBox="0 0 18 18" fill="none" xmlns="http://www.w3.org/2000/svg">
    <path style="fill:none;stroke-width:2;stroke-linecap:round;stroke-linejoin:round;stroke:black;stroke-opacity:1;stroke-miterlimit:4;" d="M 10.744792 5.09375 C 11.151042 5.03125 11.567708 5 12 5 C 17.104167 5 20.453125 9.505208 21.578125 11.286458 C 21.71875 11.5 21.786458 11.609375 21.822917 11.776042 C 21.854167 11.901042 21.854167 12.098958 21.822917 12.223958 C 21.786458 12.390625 21.71875 12.5 21.578125 12.713542 C 21.28125 13.1875 20.822917 13.859375 20.21875 14.578125 M 6.723958 6.713542 C 4.5625 8.182292 3.09375 10.21875 2.421875 11.286458 C 2.286458 11.5 2.213542 11.609375 2.177083 11.776042 C 2.151042 11.901042 2.151042 12.098958 2.177083 12.223958 C 2.213542 12.390625 2.286458 12.5 2.421875 12.713542 C 3.546875 14.494792 6.895833 19 12 19 C 14.057292 19 15.833333 18.265625 17.286458 17.276042 M 3 3 L 21 21 M 9.880208 9.880208 C 9.338542 10.421875 9 11.171875 9 12 C 9 13.65625 10.34375 15 12 15 C 12.828125 15 13.578125 14.666667 14.119792 14.119792 " transform="matrix(0.75,0,0,0.75,0,0)"/>
</svg>