<svg width="18" height="18" viewBox="0 0 18 18" fill="none" xmlns="http://www.w3.org/2000/svg">
    <g transform="matrix(0.75 0 0 0.75 0 0)">
        <path d="M17.5 17.6L6.5 17.6L17.5 17.6zM7.8 3L16.2 3C 17.8802 3 18.7202 3 19.362 3.32698C 19.9265 3.6146 20.3854 4.07354 20.673 4.63803C 21 5.27976 21 6.11984 21 7.8L21 7.8L21 16.2C 21 17.8802 21 18.7202 20.673 19.362C 20.3854 19.9265 19.9265 20.3854 19.362 20.673C 18.7202 21 17.8802 21 16.2 21L16.2 21L7.8 21C 6.11984 21 5.27976 21 4.63803 20.673C 4.07354 20.3854 3.6146 19.9265 3.32698 19.362C 3 18.7202 3 17.8802 3 16.2L3 16.2L3 7.8C 3 6.11984 3 5.27976 3.32698 4.63803C 3.6146 4.07354 4.07354 3.6146 4.63803 3.32698C 5.27976 3 6.11984 3 7.8 3z" stroke="black" stroke-width="2" stroke-linecap="square" fill="none" />
    </g>
</svg>