<svg width="20" height="20" viewBox="0 0 20 20" xmlns="http://www.w3.org/2000/svg">
    <path d="M6.42291 4.75462C6.74835 4.42918 6.74835 3.90155 6.42291 3.57611C6.09748 3.25067 5.56984 3.25067 5.2444 3.57611L1.91107 6.90944C1.58563 7.23488 1.58563 7.76252 1.91107 8.08795L5.2444 11.4213C5.56984 11.7467 6.09748 11.7467 6.42291 11.4213C6.74835 11.0958 6.74835 10.5682 6.42291 10.2428L4.51217 8.33203H13.7503C15.3612 8.33203 16.667 9.63787 16.667 11.2487C16.667 12.8595 15.3612 14.1654 13.7503 14.1654H10.0003C9.54009 14.1654 9.16699 14.5385 9.16699 14.9987C9.16699 15.4589 9.54009 15.832 10.0003 15.832H13.7503C16.2816 15.832 18.3337 13.78 18.3337 11.2487C18.3337 8.71739 16.2816 6.66536 13.7503 6.66536H4.51217L6.42291 4.75462Z"/>
</svg>