<svg width="18" height="18" viewBox="0 0 18 18" fill="none" xmlns="http://www.w3.org/2000/svg">
    <g transform="matrix(0.75 0 0 0.75 0 0)">
        <path d="M21 4L3 4L21 4zM21 20L3 20zM9 9.25L3 9.25zM9 14.75L3 14.75zM14.6 16L19.4 16C 19.9601 16 20.2401 16 20.454 15.891C 20.6422 15.7951 20.7951 15.6422 20.891 15.454C 21 15.2401 21 14.9601 21 14.4L21 14.4L21 9.6C 21 9.03995 21 8.75992 20.891 8.54601C 20.7951 8.35785 20.6422 8.20487 20.454 8.10899C 20.2401 8 19.9601 8 19.4 8L19.4 8L14.6 8C 14.0399 8 13.7599 8 13.546 8.10899C 13.3578 8.20487 13.2049 8.35785 13.109 8.54601C 13 8.75992 13 9.03995 13 9.6L13 9.6L13 14.4C 13 14.9601 13 15.2401 13.109 15.454C 13.2049 15.6422 13.3578 15.7951 13.546 15.891C 13.7599 16 14.0399 16 14.6 16z" stroke="#000000" stroke-width="2" stroke-linecap="square" fill="none" />
    </g>
</svg>