<svg width="18" height="18" viewBox="0 0 18 18" fill="none" xmlns="http://www.w3.org/2000/svg">
    <path style="fill:none;stroke-width:2;stroke-linecap:round;stroke-linejoin:round;stroke:#000000;stroke-opacity:1;stroke-miterlimit:4;" d="M 21 9.25 L 15 9.25 M 21 4 L 3 4 M 21 14.75 L 15 14.75 M 21 20 L 3 20 M 4.598958 16 L 9.401042 16 C 9.958333 16 10.239583 16 10.453125 15.890625 C 10.640625 15.796875 10.796875 15.640625 10.890625 15.453125 C 11 15.239583 11 14.958333 11 14.401042 L 11 9.598958 C 11 9.041667 11 8.760417 10.890625 8.546875 C 10.796875 8.359375 10.640625 8.203125 10.453125 8.109375 C 10.239583 8 9.958333 8 9.401042 8 L 4.598958 8 C 4.041667 8 3.760417 8 3.546875 8.109375 C 3.359375 8.203125 3.203125 8.359375 3.109375 8.546875 C 3 8.760417 3 9.041667 3 9.598958 L 3 14.401042 C 3 14.958333 3 15.239583 3.109375 15.453125 C 3.203125 15.640625 3.359375 15.796875 3.546875 15.890625 C 3.760417 16 4.041667 16 4.598958 16 Z M 4.598958 16 " transform="matrix(0.75,0,0,0.75,0,0)"/>
</svg>