<svg width="20" height="20" viewBox="0 0 20 20" xmlns="http://www.w3.org/2000/svg">
    <path d="M15.8343 17.5H16.6762C17.4855 17.5 17.8902 17.5 18.1133 17.3313C18.3076 17.1843 18.4278 16.9596 18.4424 16.7163C18.459 16.4371 18.2346 16.1004 17.7856 15.4271L15.277 11.6641C14.9061 11.1077 14.7206 10.8295 14.4868 10.7325C14.2824 10.6478 14.0527 10.6478 13.8484 10.7325C13.6146 10.8295 13.4291 11.1077 13.0582 11.6641L12.438 12.5943M15.8343 17.5L9.43052 8.25015C9.06223 7.71818 8.87809 7.4522 8.64808 7.3587C8.44686 7.2769 8.22166 7.2769 8.02045 7.3587C7.79043 7.4522 7.60629 7.71818 7.23801 8.25015L2.28276 15.4077C1.81357 16.0854 1.57898 16.4243 1.59234 16.7061C1.60397 16.9515 1.72332 17.1793 1.91849 17.3286C2.1426 17.5 2.55474 17.5 3.37902 17.5H15.8343ZM17.5009 5C17.5009 6.38071 16.3816 7.5 15.0009 7.5C13.6202 7.5 12.5009 6.38071 12.5009 5C12.5009 3.61929 13.6202 2.5 15.0009 2.5C16.3816 2.5 17.5009 3.61929 17.5009 5Z" stroke-width="1.5" stroke-linecap="round" stroke-linejoin="round"/>
</svg>