<svg width="21" height="20" viewBox="0 0 21 20" fill="none" xmlns="http://www.w3.org/2000/svg">
    <path d="M10.9167 2.5013H7C5.59987 2.5013 4.8998 2.5013 4.36502 2.77379C3.89462 3.01347 3.51217 3.39592 3.27248 3.86633C3 4.40111 3 5.10117 3 6.5013V13.5013C3 14.9014 3 15.6015 3.27248 16.1363C3.51217 16.6067 3.89462 16.9891 4.36502 17.2288C4.8998 17.5013 5.59987 17.5013 7 17.5013H14.6667C15.4416 17.5013 15.8291 17.5013 16.147 17.4161C17.0098 17.1849 17.6836 16.5111 17.9148 15.6483C18 15.3304 18 14.9429 18 14.168M16.3333 6.66797V1.66797M13.8333 4.16797H18.8333M9.25 7.08464C9.25 8.00511 8.50381 8.7513 7.58333 8.7513C6.66286 8.7513 5.91667 8.00511 5.91667 7.08464C5.91667 6.16416 6.66286 5.41797 7.58333 5.41797C8.50381 5.41797 9.25 6.16416 9.25 7.08464ZM12.9917 9.93309L5.94262 16.3413C5.54614 16.7018 5.34789 16.882 5.33036 17.0381C5.31516 17.1735 5.36704 17.3077 5.46932 17.3976C5.58732 17.5013 5.85523 17.5013 6.39107 17.5013H14.2133C15.4126 17.5013 16.0123 17.5013 16.4833 17.2998C17.0745 17.0469 17.5456 16.5758 17.7985 15.9846C18 15.5136 18 14.9139 18 13.7146C18 13.3111 18 13.1093 17.9559 12.9214C17.9005 12.6853 17.7941 12.4641 17.6444 12.2733C17.5252 12.1215 17.3677 11.9954 17.0526 11.7433L14.7215 9.87852C14.4062 9.62623 14.2485 9.50008 14.0748 9.45556C13.9218 9.41632 13.7607 9.4214 13.6104 9.47021C13.44 9.52559 13.2905 9.66143 12.9917 9.93309Z" stroke="#294753" stroke-width="1.66667" stroke-linecap="round" stroke-linejoin="round"/>
</svg>