<svg width="20" height="20" viewBox="0 0 20 20" fill="none" xmlns="http://www.w3.org/2000/svg">
    <path d="M17.5003 13.332V5.9987C17.5003 5.06528 17.5003 4.59857 17.3187 4.24205C17.1589 3.92844 16.9039 3.67348 16.5903 3.51369C16.2338 3.33203 15.7671 3.33203 14.8337 3.33203H5.16699C4.23357 3.33203 3.76686 3.33203 3.41034 3.51369C3.09674 3.67348 2.84177 3.92844 2.68198 4.24205C2.50033 4.59857 2.50033 5.06528 2.50033 5.9987V13.332M3.88921 16.6654H16.1114C16.6281 16.6654 16.8864 16.6654 17.0984 16.6086C17.6735 16.4545 18.1228 16.0052 18.2769 15.4301C18.3337 15.2181 18.3337 14.9598 18.3337 14.4431C18.3337 14.1848 18.3337 14.0557 18.3053 13.9497C18.2282 13.6621 18.0036 13.4375 17.716 13.3604C17.61 13.332 17.4809 13.332 17.2225 13.332H2.7781C2.51978 13.332 2.39062 13.332 2.28464 13.3604C1.99707 13.4375 1.77244 13.6621 1.69539 13.9497C1.66699 14.0557 1.66699 14.1848 1.66699 14.4431C1.66699 14.9598 1.66699 15.2181 1.72378 15.4301C1.87789 16.0052 2.32714 16.4545 2.90229 16.6086C3.11424 16.6654 3.37256 16.6654 3.88921 16.6654Z" stroke-linecap="round" stroke-linejoin="round"/>
</svg>