<svg width="24" height="20" viewBox="0 0 24 20" xmlns="http://www.w3.org/2000/svg">
    <path d="M3 7.5H21M3 12.5H21M12 2.5V17.5M7.8 2.5H16.2C17.8802 2.5 18.7202 2.5 19.362 2.77248C19.9265 3.01217 20.3854 3.39462 20.673 3.86502C21 4.3998 21 5.09987 21 6.5V13.5C21 14.9001 21 15.6002 20.673 16.135C20.3854 16.6054 19.9265 16.9878 19.362 17.2275C18.7202 17.5 17.8802 17.5 16.2 17.5H7.8C6.11984 17.5 5.27976 17.5 4.63803 17.2275C4.07354 16.9878 3.6146 16.6054 3.32698 16.135C3 15.6002 3 14.9001 3 13.5V6.5C3 5.09987 3 4.3998 3.32698 3.86502C3.6146 3.39462 4.07354 3.01217 4.63803 2.77248C5.27976 2.5 6.11984 2.5 7.8 2.5Z" stroke-width="1.5" stroke-linecap="round" stroke-linejoin="round"/>
</svg>