<svg width="14" height="15" viewBox="0 0 14 15" fill="none" xmlns="http://www.w3.org/2000/svg">
    <path d="M9.91732 6.91667V5.16667C9.91732 3.55584 8.61148 2.25 7.00065 2.25C5.38982 2.25 4.08398 3.55584 4.08398 5.16667V6.91667M5.13398 12.75H8.86732C9.84741 12.75 10.3375 12.75 10.7118 12.5593C11.0411 12.3915 11.3088 12.1238 11.4766 11.7945C11.6673 11.4201 11.6673 10.9301 11.6673 9.95V9.71667C11.6673 8.73658 11.6673 8.24653 11.4766 7.87218C11.3088 7.5429 11.0411 7.27518 10.7118 7.10741C10.3375 6.91667 9.84741 6.91667 8.86732 6.91667H5.13398C4.15389 6.91667 3.66385 6.91667 3.2895 7.10741C2.96022 7.27518 2.6925 7.5429 2.52472 7.87218C2.33398 8.24653 2.33398 8.73658 2.33398 9.71667V9.95C2.33398 10.9301 2.33398 11.4201 2.52472 11.7945C2.6925 12.1238 2.96022 12.3915 3.2895 12.5593C3.66385 12.75 4.15389 12.75 5.13398 12.75Z" stroke="#70848C" stroke-width="0.875" stroke-linecap="round" stroke-linejoin="round"/>
</svg>