<svg width="14" height="15" viewBox="0 0 14 15" fill="none" xmlns="http://www.w3.org/2000/svg">
    <path fill-rule="evenodd" clip-rule="evenodd" d="M7 1.66797C5.067 1.66797 3.5 3.23497 3.5 5.16797V6.42232C3.33515 6.45845 3.17692 6.51105 3.02402 6.58895C2.58498 6.81266 2.22802 7.16961 2.00432 7.60866C1.86007 7.89177 1.80257 8.19318 1.77578 8.52107C1.74999 8.83677 1.74999 9.22431 1.75 9.69387V9.97539C1.74999 10.445 1.74999 10.8325 1.77578 11.1482C1.80257 11.4761 1.86007 11.7775 2.00432 12.0606C2.22802 12.4997 2.58498 12.8566 3.02402 13.0803C3.30714 13.2246 3.60855 13.2821 3.93644 13.3089C4.25214 13.3347 4.63968 13.3346 5.10926 13.3346H8.89075C9.36032 13.3346 9.74787 13.3347 10.0636 13.3089C10.3915 13.2821 10.6929 13.2246 10.976 13.0803C11.415 12.8566 11.772 12.4997 11.9957 12.0606C12.1399 11.7775 12.1974 11.4761 12.2242 11.1482C12.25 10.8325 12.25 10.445 12.25 9.97541V9.69386C12.25 9.2243 12.25 8.83677 12.2242 8.52107C12.1974 8.19318 12.1399 7.89177 11.9957 7.60866C11.772 7.16961 11.415 6.81266 10.976 6.58895C10.8231 6.51105 10.6649 6.45845 10.5 6.42232V5.16797C10.5 3.23497 8.933 1.66797 7 1.66797ZM9.33333 6.33558V5.16797C9.33333 3.8793 8.28866 2.83464 7 2.83464C5.71134 2.83464 4.66667 3.8793 4.66667 5.16797V6.33558C4.80533 6.33463 4.95273 6.33463 5.10923 6.33464H8.89076C9.04727 6.33463 9.19467 6.33463 9.33333 6.33558Z" fill="#B3B3B3"/>
</svg>