<svg width="116" height="28" viewBox="0 0 116 28" fill="none" xmlns="http://www.w3.org/2000/svg">
    <g clip-path="url(#clip0_91_114076)">
        <mask id="mask0_91_114076" style="mask-type:alpha" maskUnits="userSpaceOnUse" x="0" y="0" width="33" height="28">
        <path d="M0 0.750493C0 0.70923 0.0334503 0.675781 0.0747133 0.675781H18.7859C26.1445 0.675781 32.1099 6.64111 32.1099 13.9997V13.9997C32.1099 21.3583 26.1445 27.3237 18.7859 27.3237H0.0373995C0.0167439 27.3237 0 27.3069 0 27.2863V0.750493Z" fill="#FF6833"/>
        </mask>
        <g mask="url(#mask0_91_114076)">
            <path d="M0 1.84762C0 1.37008 0 1.13131 0.117422 0.961419C0.162878 0.895651 0.219869 0.838659 0.285638 0.793204C0.455534 0.675781 0.694304 0.675781 1.17184 0.675781H18.7859C26.1445 0.675781 32.1099 6.64111 32.1099 13.9997V13.9997C32.1099 21.3583 26.1445 27.3237 18.7859 27.3237H1.17184C0.694304 27.3237 0.455534 27.3237 0.285638 27.2062C0.219869 27.1608 0.162878 27.1038 0.117422 27.038C0 26.8681 0 26.6294 0 26.1518V1.84762Z" fill="#726DFF"/>
            <path d="M20.8236 12.9465C21.5628 13.367 21.9325 13.5772 21.9876 13.8817C22.0017 13.9597 22.0017 14.0396 21.9876 14.1176C21.9325 14.4222 21.5628 14.6324 20.8236 15.0528L11.2447 20.5008C10.5197 20.9131 10.1573 21.1193 9.86955 21.0145C9.79575 20.9876 9.72733 20.9478 9.66748 20.8969C9.43411 20.6986 9.43411 20.2817 9.43411 19.4477L9.43411 8.55165C9.43411 7.71769 9.43411 7.30071 9.66748 7.10242C9.72733 7.05156 9.79576 7.01176 9.86955 6.98488C10.1573 6.88006 10.5197 7.0862 11.2447 7.4985L20.8236 12.9465Z" fill="white"/>
        </g>
        <path d="M56.0501 13.9879C56.0501 15.494 55.7991 16.8769 55.2971 18.1366C54.795 19.3964 54.0894 20.4809 53.1801 21.3902C52.2708 22.2995 51.1768 23.0052 49.8981 23.5072C48.6193 24.0092 47.1986 24.2602 45.6357 24.2602H37.8071V3.71561H45.6357C47.1986 3.71561 48.6193 3.97135 49.8981 4.48283C51.1768 4.98485 52.2708 5.69051 53.1801 6.59981C54.0894 7.49965 54.795 8.57945 55.2971 9.83921C55.7991 11.099 56.0501 12.4819 56.0501 13.9879ZM52.1287 13.9879C52.1287 12.8608 51.9771 11.852 51.674 10.9616C51.3804 10.0618 50.9494 9.30405 50.3811 8.68837C49.8223 8.06323 49.1403 7.58489 48.3352 7.25338C47.5395 6.92186 46.6397 6.7561 45.6357 6.7561H41.6433V21.2197H45.6357C46.6397 21.2197 47.5395 21.054 48.3352 20.7225C49.1403 20.391 49.8223 19.9174 50.3811 19.3017C50.9494 18.6765 51.3804 17.9188 51.674 17.0284C51.9771 16.1286 52.1287 15.1151 52.1287 13.9879Z" fill="white"/>
        <path d="M79.0169 13.9879C79.0169 15.494 78.7659 16.8911 78.2639 18.1793C77.7714 19.458 77.0705 20.5662 76.1611 21.5039C75.2518 22.4416 74.1578 23.1757 72.8791 23.7061C71.6004 24.2271 70.1796 24.4876 68.6167 24.4876C67.0633 24.4876 65.6473 24.2271 64.3686 23.7061C63.0899 23.1757 61.9911 22.4416 61.0724 21.5039C60.163 20.5662 59.4574 19.458 58.9554 18.1793C58.4534 16.8911 58.2024 15.494 58.2024 13.9879C58.2024 12.4819 58.4534 11.0895 58.9554 9.8108C59.4574 8.52261 60.163 7.40966 61.0724 6.47194C61.9911 5.53422 63.0899 4.80488 64.3686 4.28392C65.6473 3.7535 67.0633 3.48828 68.6167 3.48828C69.6587 3.48828 70.639 3.61142 71.5578 3.85769C72.4766 4.09448 73.3196 4.43547 74.0868 4.88065C74.854 5.31636 75.5407 5.85153 76.1469 6.48615C76.7626 7.1113 77.2836 7.81222 77.7098 8.58892C78.136 9.36562 78.4581 10.2086 78.6759 11.1179C78.9033 12.0272 79.0169 12.9839 79.0169 13.9879ZM75.1098 13.9879C75.1098 12.8608 74.9582 11.852 74.6551 10.9616C74.352 10.0618 73.921 9.29931 73.3622 8.67417C72.8033 8.04902 72.1214 7.57068 71.3162 7.23917C70.5206 6.90765 69.6208 6.74189 68.6167 6.74189C67.6127 6.74189 66.7082 6.90765 65.903 7.23917C65.1074 7.57068 64.4254 8.04902 63.8571 8.67417C63.2983 9.29931 62.8673 10.0618 62.5642 10.9616C62.2611 11.852 62.1095 12.8608 62.1095 13.9879C62.1095 15.1151 62.2611 16.1286 62.5642 17.0284C62.8673 17.9188 63.2983 18.6765 63.8571 19.3017C64.4254 19.9174 65.1074 20.391 65.903 20.7225C66.7082 21.054 67.6127 21.2197 68.6167 21.2197C69.6208 21.2197 70.5206 21.054 71.3162 20.7225C72.1214 20.391 72.8033 19.9174 73.3622 19.3017C73.921 18.6765 74.352 17.9188 74.6551 17.0284C74.9582 16.1286 75.1098 15.1151 75.1098 13.9879Z" fill="white"/>
        <path d="M88.5822 13.4906C89.3021 13.4906 89.9272 13.4007 90.4576 13.2207C90.9975 13.0407 91.438 12.7945 91.779 12.4819C92.1294 12.1598 92.3899 11.781 92.5604 11.3453C92.7309 10.9095 92.8161 10.4312 92.8161 9.91025C92.8161 8.86834 92.4704 8.06796 91.779 7.50912C91.097 6.95027 90.0503 6.67085 88.639 6.67085H86.1953V13.4906H88.5822ZM98.4141 24.2602H94.9615C94.308 24.2602 93.8344 24.0045 93.5407 23.493L89.2215 16.9148C89.0605 16.6685 88.8805 16.4932 88.6816 16.3891C88.4922 16.2849 88.208 16.2328 87.8292 16.2328H86.1953V24.2602H82.3733V3.71561H88.639C90.0314 3.71561 91.2249 3.86242 92.2194 4.15605C93.2234 4.44021 94.0428 4.84277 94.6774 5.36372C95.3215 5.88468 95.7951 6.50983 96.0982 7.23917C96.4013 7.95903 96.5528 8.75468 96.5528 9.62609C96.5528 10.3175 96.4486 10.9711 96.2402 11.5868C96.0413 12.2025 95.7477 12.7613 95.3594 13.2633C94.9805 13.7653 94.5069 14.2058 93.9386 14.5847C93.3797 14.9635 92.7404 15.2619 92.0205 15.4798C92.2668 15.6218 92.4941 15.7923 92.7025 15.9912C92.9109 16.1807 93.1003 16.408 93.2708 16.6732L98.4141 24.2602Z" fill="white"/>
        <path d="M108.512 16.3038V24.2602H104.705V16.3038L97.217 3.71561H100.584C100.916 3.71561 101.176 3.79612 101.366 3.95714C101.565 4.11816 101.73 4.32181 101.863 4.56808L105.614 11.4305C105.832 11.8378 106.021 12.2214 106.182 12.5813C106.353 12.9413 106.504 13.3012 106.637 13.6611C106.76 13.3012 106.902 12.9413 107.063 12.5813C107.224 12.2214 107.409 11.8378 107.617 11.4305L111.354 4.56808C111.458 4.3597 111.614 4.16552 111.823 3.98556C112.031 3.80559 112.296 3.71561 112.618 3.71561H116L108.512 16.3038Z" fill="white"/>
    </g>
    <defs>
        <clipPath id="clip0_91_114076">
            <rect width="116" height="26.6479" fill="white" transform="translate(0 0.675781)"/>
        </clipPath>
    </defs>
</svg>