<svg width="20" height="20" viewBox="0 0 20 20" fill="none" xmlns="http://www.w3.org/2000/svg">
    <path d="M12.5003 1.66797V2.83464C12.5003 3.30135 12.5003 3.5347 12.4095 3.71296C12.3296 3.86976 12.2021 3.99725 12.0453 4.07714C11.8671 4.16797 11.6337 4.16797 11.167 4.16797H8.83366C8.36695 4.16797 8.13359 4.16797 7.95533 4.07714C7.79853 3.99725 7.67105 3.86976 7.59115 3.71296C7.50033 3.5347 7.50033 3.30135 7.50033 2.83464V1.66797M6.83366 18.3346H13.167C14.1004 18.3346 14.5671 18.3346 14.9236 18.153C15.2372 17.9932 15.4922 17.7382 15.652 17.4246C15.8337 17.0681 15.8337 16.6014 15.8337 15.668V4.33464C15.8337 3.40121 15.8337 2.9345 15.652 2.57798C15.4922 2.26438 15.2372 2.00941 14.9236 1.84962C14.5671 1.66797 14.1004 1.66797 13.167 1.66797H6.83366C5.90024 1.66797 5.43353 1.66797 5.07701 1.84962C4.7634 2.00941 4.50844 2.26438 4.34865 2.57798C4.16699 2.9345 4.16699 3.40121 4.16699 4.33464V15.668C4.16699 16.6014 4.16699 17.0681 4.34865 17.4246C4.50844 17.7382 4.7634 17.9932 5.07701 18.153C5.43353 18.3346 5.90024 18.3346 6.83366 18.3346Z" stroke-linecap="round" stroke-linejoin="round"/>
</svg>