<svg width="16" height="17" viewBox="0 0 16 17" fill="none" xmlns="http://www.w3.org/2000/svg">
    <path d="M10.154 2.31338C11.5373 1.5526 13.0921 1.15836 14.6708 1.16815C15.0373 1.17042 15.3333 1.46822 15.3333 1.8348C15.3333 3.70834 14.8077 6.97327 11.4317 9.4459C11.4885 9.68427 11.5531 9.99803 11.5978 10.3447C11.6466 10.723 11.674 11.1584 11.6342 11.5869C11.5949 12.0096 11.4858 12.4748 11.2213 12.8714L11.2207 12.8723C10.7681 13.5489 9.91445 13.9412 9.31813 14.1575C8.99768 14.2737 8.70162 14.3562 8.48619 14.4096C8.32382 14.4499 8.20467 14.4743 8.15065 14.4849C7.94518 14.524 7.73583 14.4829 7.57273 14.3467C7.421 14.2201 7.3333 14.0326 7.3333 13.835V10.7776L5.724 9.16831H2.66663C2.46898 9.16831 2.28152 9.08061 2.15486 8.92888C2.02819 8.77715 1.97538 8.57704 2.01068 8.38257C2.03317 8.2593 2.06181 8.13699 2.09197 8.01541C2.1454 7.79999 2.22785 7.50393 2.34409 7.18348C2.56039 6.58716 2.95267 5.73349 3.62928 5.28086L3.63016 5.28027C4.02683 5.01583 4.49202 4.90671 4.91473 4.86742C5.34318 4.8276 5.7786 4.85503 6.15685 4.90378C6.50719 4.94893 6.82389 5.01444 7.06316 5.07168C7.8704 3.93236 8.92652 2.98851 10.154 2.31338Z" fill="#0F9958"/>
    <path fill-rule="evenodd" clip-rule="evenodd" d="M4.00207 10.4939C3.47996 10.4777 2.97028 10.6549 2.57077 10.9914C2.21958 11.2865 1.96173 11.6931 1.77074 12.0841C1.57595 12.4829 1.42792 12.9133 1.31735 13.2998C1.20617 13.6885 1.12889 14.047 1.07938 14.3078C1.05454 14.4386 1.03647 14.546 1.02447 14.6217C1.01796 14.6628 1.01186 14.7039 1.00604 14.7451L1.00589 14.7463C0.978361 14.9522 1.04835 15.1594 1.19524 15.3063C1.34212 15.4531 1.54965 15.5231 1.75555 15.4956C1.79701 15.4897 1.83843 15.4836 1.8798 15.477C1.95548 15.465 2.06287 15.4469 2.19371 15.4221C2.45447 15.3726 2.81296 15.2953 3.20165 15.1841C3.58821 15.0736 4.01857 14.9255 4.41736 14.7308C4.80823 14.5398 5.21468 14.2821 5.5098 13.9311C6.19048 13.125 6.20064 11.8694 5.40837 11.0871L5.40027 11.0793C5.02227 10.7185 4.52435 10.51 4.00207 10.4939Z" fill="#0F9958"/>
</svg>