<svg width="20" height="20" viewBox="0 0 20 20" fill="none" xmlns="http://www.w3.org/2000/svg">
    <g clip-path="url(#clip0_1800_104897)">
        <path d="M7.57533 7.5013C7.77125 6.94436 8.15795 6.47472 8.66695 6.17558C9.17596 5.87643 9.77441 5.76708 10.3563 5.8669C10.9382 5.96671 11.466 6.26924 11.8462 6.72091C12.2264 7.17258 12.4345 7.74424 12.4337 8.33464C12.4337 10.0013 9.93366 10.8346 9.93366 10.8346M10.0003 14.168H10.0087M18.3337 10.0013C18.3337 14.6037 14.6027 18.3346 10.0003 18.3346C5.39795 18.3346 1.66699 14.6037 1.66699 10.0013C1.66699 5.39893 5.39795 1.66797 10.0003 1.66797C14.6027 1.66797 18.3337 5.39893 18.3337 10.0013Z" stroke="white" stroke-width="1.5" stroke-linecap="round" stroke-linejoin="round"/>
    </g>
    <defs>
        <clipPath id="clip0_1800_104897">
            <rect width="20" height="20" fill="white"/>
        </clipPath>
    </defs>
</svg>