<svg width="20" height="20" viewBox="0 0 20 20" fill="none" xmlns="http://www.w3.org/2000/svg">
    <g clip-path="url(#clip0_3003_104478)">
        <path d="M7.57435 7.5013C7.77027 6.94436 8.15698 6.47472 8.66598 6.17558C9.17498 5.87643 9.77343 5.76708 10.3553 5.8669C10.9372 5.96671 11.465 6.26924 11.8452 6.72091C12.2255 7.17258 12.4336 7.74424 12.4327 8.33464C12.4327 10.0013 9.93268 10.8346 9.93268 10.8346M9.99935 14.168H10.0077M18.3327 10.0013C18.3327 14.6037 14.6017 18.3346 9.99935 18.3346C5.39698 18.3346 1.66602 14.6037 1.66602 10.0013C1.66602 5.39893 5.39698 1.66797 9.99935 1.66797C14.6017 1.66797 18.3327 5.39893 18.3327 10.0013Z" stroke="#294753" stroke-width="1.5" stroke-linecap="round" stroke-linejoin="round"/>
    </g>
    <defs>
        <clipPath id="clip0_3003_104478">
            <rect width="20" height="20" fill="white"/>
        </clipPath>
    </defs>
</svg>