<svg width="21" height="20" viewBox="0 0 21 20" fill="none" xmlns="http://www.w3.org/2000/svg">
    <path d="M10.2556 0.744078C9.93016 0.418641 9.40252 0.418641 9.07709 0.744078C8.75165 1.06951 8.75165 1.59715 9.07709 1.92259L9.32439 2.16989C5.5095 2.73765 2.58301 6.02702 2.58301 9.99992C2.58301 12.6322 3.86849 14.9642 5.8423 16.4023C6.21428 16.6733 6.73553 16.5914 7.00654 16.2195C7.27755 15.8475 7.1957 15.3262 6.82372 15.0552C5.26196 13.9174 4.24967 12.0769 4.24967 9.99992C4.24967 6.96304 6.41563 4.43205 9.28702 3.86748L9.07709 4.07741C8.75165 4.40285 8.75165 4.93049 9.07709 5.25592C9.40252 5.58136 9.93016 5.58136 10.2556 5.25592L11.9223 3.58926C12.2477 3.26382 12.2477 2.73618 11.9223 2.41074L10.2556 0.744078Z" fill="black"/>
    <path d="M15.1571 3.59748C14.7851 3.32647 14.2638 3.40832 13.9928 3.7803C13.7218 4.15228 13.8036 4.67353 14.1756 4.94455C15.7374 6.08239 16.7497 7.92286 16.7497 9.99985C16.7497 13.0367 14.5838 15.5677 11.7124 16.1323L11.9223 15.9224C12.2477 15.597 12.2477 15.0694 11.9223 14.7439C11.5968 14.4185 11.0692 14.4185 10.7438 14.7439L9.07709 16.4106C8.75165 16.736 8.75165 17.2637 9.07709 17.5891L10.7438 19.2558C11.0692 19.5812 11.5968 19.5812 11.9223 19.2558C12.2477 18.9303 12.2477 18.4027 11.9223 18.0772L11.6749 17.8299C15.4898 17.2622 18.4163 13.9728 18.4163 9.99985C18.4163 7.36761 17.1309 5.03553 15.1571 3.59748Z" fill="black"/>
</svg>