<svg width="18" height="18" viewBox="0 0 18 18" fill="none" xmlns="http://www.w3.org/2000/svg">
    <path style="fill:none;stroke-width:2;stroke-linecap:round;stroke-linejoin:round;stroke:#000000;stroke-opacity:1;stroke-miterlimit:4;" d="M 10 18 L 10 6 C 10 5.067708 10 4.604167 9.848958 4.234375 C 9.645833 3.744792 9.255208 3.354167 8.765625 3.151042 C 8.395833 3 7.932292 3 7 3 C 6.067708 3 5.604167 3 5.234375 3.151042 C 4.744792 3.354167 4.354167 3.744792 4.151042 4.234375 C 4 4.604167 4 5.067708 4 6 L 4 18 C 4 18.932292 4 19.395833 4.151042 19.765625 C 4.354167 20.255208 4.744792 20.645833 5.234375 20.848958 C 5.604167 21 6.067708 21 7 21 C 7.932292 21 8.395833 21 8.765625 20.848958 C 9.255208 20.645833 9.645833 20.255208 9.848958 19.765625 C 10 19.395833 10 18.932292 10 18 Z M 10 18 " transform="matrix(0.75,0,0,0.75,0,0)"/>
    <path style="fill:none;stroke-width:2;stroke-linecap:round;stroke-linejoin:round;stroke:#000000;stroke-opacity:1;stroke-miterlimit:4;" d="M 20 14 L 20 6 C 20 5.067708 20 4.604167 19.848958 4.234375 C 19.645833 3.744792 19.255208 3.354167 18.765625 3.151042 C 18.395833 3 17.932292 3 17 3 C 16.067708 3 15.604167 3 15.234375 3.151042 C 14.744792 3.354167 14.354167 3.744792 14.151042 4.234375 C 14 4.604167 14 5.067708 14 6 L 14 14 C 14 14.932292 14 15.395833 14.151042 15.765625 C 14.354167 16.255208 14.744792 16.645833 15.234375 16.848958 C 15.604167 17 16.067708 17 17 17 C 17.932292 17 18.395833 17 18.765625 16.848958 C 19.255208 16.645833 19.645833 16.255208 19.848958 15.765625 C 20 15.395833 20 14.932292 20 14 Z M 20 14 " transform="matrix(0.75,0,0,0.75,0,0)"/>
</svg>