<svg width="18" height="18" viewBox="0 0 18 18" fill="none" xmlns="http://www.w3.org/2000/svg">
    <g id="surface1">
        <path style="fill:none;stroke-width:2;stroke-linecap:round;stroke-linejoin:round;stroke:black;stroke-opacity:1;stroke-miterlimit:4;" d="M 14 18 L 14 6 C 14 5.067708 14 4.604167 14.151042 4.234375 C 14.354167 3.744792 14.744792 3.354167 15.234375 3.151042 C 15.604167 3 16.067708 3 17 3 C 17.932292 3 18.395833 3 18.765625 3.151042 C 19.255208 3.354167 19.645833 3.744792 19.848958 4.234375 C 20 4.604167 20 5.067708 20 6 L 20 18 C 20 18.932292 20 19.395833 19.848958 19.765625 C 19.645833 20.255208 19.255208 20.645833 18.765625 20.848958 C 18.395833 21 17.932292 21 17 21 C 16.067708 21 15.604167 21 15.234375 20.848958 C 14.744792 20.645833 14.354167 20.255208 14.151042 19.765625 C 14 19.395833 14 18.932292 14 18 Z M 14 18 " transform="matrix(0.75,0,0,0.75,0,0)"/>
        <path style="fill:none;stroke-width:2;stroke-linecap:round;stroke-linejoin:round;stroke:black;stroke-opacity:1;stroke-miterlimit:4;" d="M 4 14 L 4 6 C 4 5.067708 4 4.604167 4.151042 4.234375 C 4.354167 3.744792 4.744792 3.354167 5.234375 3.151042 C 5.604167 3 6.067708 3 7 3 C 7.932292 3 8.395833 3 8.765625 3.151042 C 9.255208 3.354167 9.645833 3.744792 9.848958 4.234375 C 10 4.604167 10 5.067708 10 6 L 10 14 C 10 14.932292 10 15.395833 9.848958 15.765625 C 9.645833 16.255208 9.255208 16.645833 8.765625 16.848958 C 8.395833 17 7.932292 17 7 17 C 6.067708 17 5.604167 17 5.234375 16.848958 C 4.744792 16.645833 4.354167 16.255208 4.151042 15.765625 C 4 15.395833 4 14.932292 4 14 Z M 4 14 " transform="matrix(0.75,0,0,0.75,0,0)"/>
    </g>
</svg>