<svg width="18" height="18" viewBox="0 0 18 18" fill="none" xmlns="http://www.w3.org/2000/svg">
    <path style="fill:none;stroke-width:2;stroke-linecap:round;stroke-linejoin:round;stroke:#000000;stroke-opacity:1;stroke-miterlimit:4;" d="M 3 7.800987 C 3 6.118421 3 5.279605 3.325658 4.638158 C 3.616776 4.075658 4.075658 3.616776 4.638158 3.325658 C 5.279605 3 6.118421 3 7.800987 3 L 16.199013 3 C 17.881579 3 18.720395 3 19.361842 3.325658 C 19.924342 3.616776 20.383224 4.075658 20.674342 4.638158 C 21 5.279605 21 6.118421 21 7.800987 L 21 16.199013 C 21 17.881579 21 18.720395 20.674342 19.361842 C 20.383224 19.924342 19.924342 20.383224 19.361842 20.674342 C 18.720395 21 17.881579 21 16.199013 21 L 7.800987 21 C 6.118421 21 5.279605 21 4.638158 20.674342 C 4.075658 20.383224 3.616776 19.924342 3.325658 19.361842 C 3 18.720395 3 17.881579 3 16.199013 Z M 3 7.800987 " transform="matrix(0.791667,0,0,0.791667,0,0)"/>
</svg>