<svg width="19" height="18" viewBox="0 0 19 18" fill="none" xmlns="http://www.w3.org/2000/svg">
    <path d="M2.58301 6.75H16.083M2.58301 11.25H16.083M9.33301 2.25V15.75M6.18301 2.25H12.483C13.7431 2.25 14.3732 2.25 14.8545 2.49524C15.2779 2.71095 15.6221 3.05516 15.8378 3.47852C16.083 3.95982 16.083 4.58988 16.083 5.85V12.15C16.083 13.4101 16.083 14.0402 15.8378 14.5215C15.6221 14.9448 15.2779 15.289 14.8545 15.5048C14.3732 15.75 13.7431 15.75 12.483 15.75H6.18301C4.92289 15.75 4.29283 15.75 3.81153 15.5048C3.38816 15.289 3.04396 14.9448 2.82824 14.5215C2.58301 14.0402 2.58301 13.4101 2.58301 12.15V5.85C2.58301 4.58988 2.58301 3.95982 2.82824 3.47852C3.04396 3.05516 3.38816 2.71095 3.81153 2.49524C4.29283 2.25 4.92289 2.25 6.18301 2.25Z" stroke="black" stroke-width="1.5" stroke-linecap="round" stroke-linejoin="round"/>
</svg>