<svg width="21" height="20" viewBox="0 0 21 20" fill="none" xmlns="http://www.w3.org/2000/svg">
    <path d="M11.2602 14.1667H17.2385M11.2602 14.1667L9.66602 17.5M11.2602 14.1667L13.6479 9.17419C13.8403 8.77189 13.9365 8.57075 14.0682 8.50718C14.1826 8.4519 14.3161 8.4519 14.4305 8.50718C14.5622 8.57075 14.6584 8.77189 14.8508 9.17419L17.2385 14.1667M17.2385 14.1667L18.8327 17.5M2.16602 4.16667H7.16602M7.16602 4.16667H10.0827M7.16602 4.16667V2.5M10.0827 4.16667H12.166M10.0827 4.16667C9.66923 6.63107 8.70984 8.86349 7.30397 10.737M8.83268 11.6667C8.32224 11.4373 7.80156 11.1184 7.30397 10.737M7.30397 10.737C6.17687 9.87314 5.16832 8.68886 4.66602 7.5M7.30397 10.737C5.96673 12.5191 4.22554 13.9765 2.16602 15" stroke-width="1.66667" stroke-linecap="round" stroke-linejoin="round"/>
</svg>