<svg width="21" height="21" viewBox="0 0 21 21" xmlns="http://www.w3.org/2000/svg">
    <path d="M13.6785 5.45666V4.8083C13.6785 3.9005 13.6785 3.44661 13.5018 3.09987C13.3464 2.79488 13.0984 2.54691 12.7934 2.39151C12.4467 2.21484 11.9928 2.21484 11.085 2.21484H9.7883C8.88051 2.21484 8.42661 2.21484 8.07988 2.39151C7.77489 2.54691 7.52692 2.79488 7.37152 3.09987C7.19485 3.44661 7.19485 3.9005 7.19485 4.8083V5.45666M8.81575 9.91416V13.9664M12.0576 9.91416V13.9664M3.14258 5.45666H17.7307M16.1098 5.45666V14.5337C16.1098 15.8954 16.1098 16.5763 15.8448 17.0964C15.6117 17.5539 15.2398 17.9258 14.7823 18.1589C14.2622 18.4239 13.5814 18.4239 12.2197 18.4239H8.65366C7.29197 18.4239 6.61113 18.4239 6.09103 18.1589C5.63354 17.9258 5.26159 17.5539 5.02849 17.0964C4.76349 16.5763 4.76349 15.8954 4.76349 14.5337V5.45666" stroke-width="1.62091" stroke-linecap="round" stroke-linejoin="round"/>
</svg>