<svg width="18" height="18" viewBox="0 0 18 18" fill="none" xmlns="http://www.w3.org/2000/svg">
    <path style="fill:none;stroke-width:2;stroke-linecap:round;stroke-linejoin:round;stroke:#000000;stroke-opacity:1;stroke-miterlimit:4;" d="M 8 7 L 16 7 M 12 7 L 12 17 M 7.802083 21 L 16.197917 21 C 17.880208 21 18.71875 21 19.364583 20.671875 C 19.927083 20.385417 20.385417 19.927083 20.671875 19.364583 C 21 18.71875 21 17.880208 21 16.197917 L 21 7.802083 C 21 6.119792 21 5.28125 20.671875 4.640625 C 20.385417 4.072917 19.927083 3.614583 19.364583 3.328125 C 18.71875 3 17.880208 3 16.197917 3 L 7.802083 3 C 6.119792 3 5.28125 3 4.640625 3.328125 C 4.072917 3.614583 3.614583 4.072917 3.328125 4.640625 C 3 5.28125 3 6.119792 3 7.802083 L 3 16.197917 C 3 17.880208 3 18.71875 3.328125 19.364583 C 3.614583 19.927083 4.072917 20.385417 4.640625 20.671875 C 5.28125 21 6.119792 21 7.802083 21 Z M 7.802083 21 " transform="matrix(0.75,0,0,0.75,0,0)"/>
</svg>